<svg width="18" height="19" viewBox="0 0 18 19" fill="none" xmlns="http://www.w3.org/2000/svg">
<path d="M1.38462 17.6429H4.5V14.5893H1.38462V17.6429ZM5.19231 17.6429H8.65385V14.5893H5.19231V17.6429ZM1.38462 13.9107H4.5V10.5179H1.38462V13.9107ZM5.19231 13.9107H8.65385V10.5179H5.19231V13.9107ZM1.38462 9.83928H4.5V6.78571H1.38462V9.83928ZM5.19231 9.83928H8.65385V6.78571H5.19231V9.83928ZM13.5 17.6429H16.6154V14.5893H13.5V17.6429ZM9.34615 13.9107H12.8077V10.5179H9.34615V13.9107ZM5.53846 4.75V1.69643C5.53846 1.60454 5.50421 1.52502 5.4357 1.45787C5.36719 1.39072 5.28606 1.35714 5.19231 1.35714H4.5C4.40625 1.35714 4.32512 1.39072 4.25661 1.45787C4.1881 1.52502 4.15385 1.60454 4.15385 1.69643V4.75C4.15385 4.84189 4.1881 4.92141 4.25661 4.98856C4.32512 5.05571 4.40625 5.08929 4.5 5.08929H5.19231C5.28606 5.08929 5.36719 5.05571 5.4357 4.98856C5.50421 4.92141 5.53846 4.84189 5.53846 4.75ZM13.5 13.9107H16.6154V10.5179H13.5V13.9107ZM9.34615 9.83928H12.8077V6.78571H9.34615V9.83928ZM13.5 9.83928H16.6154V6.78571H13.5V9.83928ZM13.8462 4.75V1.69643C13.8462 1.60454 13.8119 1.52502 13.7434 1.45787C13.6749 1.39072 13.5938 1.35714 13.5 1.35714H12.8077C12.7139 1.35714 12.6328 1.39072 12.5643 1.45787C12.4958 1.52502 12.4615 1.60454 12.4615 1.69643V4.75C12.4615 4.84189 12.4958 4.92141 12.5643 4.98856C12.6328 5.05571 12.7139 5.08929 12.8077 5.08929H13.5C13.5938 5.08929 13.6749 5.05571 13.7434 4.98856C13.8119 4.92141 13.8462 4.84189 13.8462 4.75ZM18 4.07143V17.6429C18 18.0104 17.863 18.3285 17.5889 18.5971C17.3149 18.8657 16.9904 19 16.6154 19H1.38462C1.00962 19 0.685096 18.8657 0.411058 18.5971C0.137019 18.3285 0 18.0104 0 17.6429V4.07143C0 3.70387 0.137019 3.38579 0.411058 3.11719C0.685096 2.84859 1.00962 2.71429 1.38462 2.71429H2.76923V1.69643C2.76923 1.22991 2.9387 0.830543 3.27764 0.498326C3.61659 0.166109 4.02404 0 4.5 0H5.19231C5.66827 0 6.07572 0.166109 6.41466 0.498326C6.75361 0.830543 6.92308 1.22991 6.92308 1.69643V2.71429H11.0769V1.69643C11.0769 1.22991 11.2464 0.830543 11.5853 0.498326C11.9243 0.166109 12.3317 0 12.8077 0H13.5C13.976 0 14.3834 0.166109 14.7224 0.498326C15.0613 0.830543 15.2308 1.22991 15.2308 1.69643V2.71429H16.6154C16.9904 2.71429 17.3149 2.84859 17.5889 3.11719C17.863 3.38579 18 3.70387 18 4.07143Z" fill="white"/>
</svg>
