<svg width="48" height="49" viewBox="0 0 48 49" fill="none" xmlns="http://www.w3.org/2000/svg">
<path fill-rule="evenodd" clip-rule="evenodd" d="M0 44.5722V9.74091C0 7.74844 1.61964 6.05115 3.681 6.05115H38.4297L0 44.5722Z" fill="#68A56C"/>
<path fill-rule="evenodd" clip-rule="evenodd" d="M0 45.3102V44.5722L38.4297 6.05115H39.1659C41.1536 6.05115 42.8469 7.67464 42.8469 9.74091V10.4789L4.4172 48.9261H3.681C1.69326 48.9261 0 47.3026 0 45.3102Z" fill="#F6D85B"/>
<path fill-rule="evenodd" clip-rule="evenodd" d="M4.41797 48.9262L21.4242 31.8795L38.4304 48.9262H4.41797Z" fill="#6C86C2"/>
<path fill-rule="evenodd" clip-rule="evenodd" d="M38.4292 48.9262L21.2021 31.6582L25.6194 27.2305L42.8464 44.5723V45.3103C42.8464 47.3028 41.2268 49 39.1654 49H38.4292V48.9262Z" fill="white"/>
<path fill-rule="evenodd" clip-rule="evenodd" d="M42.847 44.5722L25.8408 27.5256L42.847 10.4789V44.5722Z" fill="#BDBCBE"/>
<path d="M7.65653 10.774C9.86513 9.74089 12.5891 10.1837 14.356 11.8072L12.6627 13.5044C10.8958 11.7334 7.58291 12.5451 6.77309 14.9066C5.66879 17.1942 7.50929 20.2198 10.0124 20.2198C11.7056 20.4412 13.3253 19.2605 13.6934 17.637H10.2332C10.2332 16.899 10.1596 16.1611 10.2332 15.4969C12.1474 15.5707 14.2087 15.3493 16.1228 15.5707C16.2701 16.9728 16.1965 18.5225 15.3866 19.777C14.2087 21.9909 11.3375 23.024 8.98169 22.4337C6.03689 21.8433 3.82829 18.7439 4.19639 15.7183C4.27001 13.5782 5.74241 11.6596 7.65653 10.774Z" fill="#EFEFEF"/>
<path d="M35.3369 0H36.7356C40.1958 0.221385 43.5823 1.91867 45.7173 4.72289C47.1161 6.49397 47.8523 8.70783 47.9995 10.9217V11.7334C47.9259 16.0135 45.2019 19.5557 42.7725 22.9503C40.1222 26.7139 37.6191 30.8464 36.9565 35.5693C36.8093 36.381 36.9565 37.4879 36.0731 37.8569C35.8522 37.7093 35.5577 37.5617 35.4105 37.2666C35.116 34.6837 34.4534 32.1009 33.3491 29.6657C32.0976 26.8614 30.3307 24.3524 28.5638 21.9172C27.4595 20.4413 26.4288 18.8916 25.619 17.2681C24.2938 14.8328 23.7785 11.9548 24.3675 9.2244C24.8092 7.08434 25.9135 5.09187 27.5331 3.54217C29.5945 1.40211 32.392 0.221385 35.3369 0ZM35.116 7.6009C33.4964 7.96988 32.0976 9.44578 31.9503 11.1431C31.8031 12.7666 32.6865 14.3163 34.1589 15.0542C35.705 15.866 37.6927 15.6446 39.0179 14.4639C40.1958 13.4307 40.6375 11.5858 40.0485 10.0361C39.2387 8.19126 37.0301 7.08434 35.116 7.6009Z" fill="#D05447"/>
<path d="M35.1165 7.60085C37.0306 7.08428 39.2392 8.19121 39.9754 10.0361C40.638 11.512 40.1963 13.3569 38.9448 14.4638C37.6932 15.6445 35.6319 15.8659 34.0858 15.0542C32.6871 14.3162 31.73 12.7665 31.8772 11.143C32.0245 9.44573 33.4233 7.96982 35.1165 7.60085Z" fill="#764141"/>
</svg>
