<svg width="30" height="30" viewBox="0 0 30 30" fill="#003868" xmlns="http://www.w3.org/2000/svg">
<circle cx="15" cy="15" r="15" fill="white"/>
<circle cx="15" cy="15" r="15" stroke="white" fill="white"/>
<rect x="7" y="7" width="16" height="16" rx="5"  />
<path class="inverse" d="M15.0036 10.8978C12.7329 10.8978 10.9014 12.7293 10.9014 15C10.9014 17.2707 12.7329 19.1022 15.0036 19.1022C17.2742 19.1022 19.1058 17.2707 19.1058 15C19.1058 12.7293 17.2742 10.8978 15.0036 10.8978ZM15.0036 17.667C13.5362 17.667 12.3366 16.471 12.3366 15C12.3366 13.5291 13.5326 12.3331 15.0036 12.3331C16.4745 12.3331 17.6705 13.5291 17.6705 15C17.6705 16.471 16.4709 17.667 15.0036 17.667ZM20.2304 10.73C20.2304 11.262 19.802 11.6868 19.2736 11.6868C18.7416 11.6868 18.3167 11.2584 18.3167 10.73C18.3167 10.2016 18.7452 9.77319 19.2736 9.77319C19.802 9.77319 20.2304 10.2016 20.2304 10.73Z" fill="white"/>
</svg>
