<svg width="30" height="27" viewBox="0 0 30 27" fill="white" xmlns="http://www.w3.org/2000/svg">
<path d="M15 0C11.3755 0 8.4375 2.90864 8.4375 6.49687C8.4375 9.39778 12.7266 14.685 14.3698 16.6042C14.7026 16.9929 15.2979 16.9929 15.6302 16.6042C17.2734 14.685 21.5625 9.39778 21.5625 6.49687C21.5625 2.90864 18.6245 0 15 0ZM15 8.6625C13.7917 8.6625 12.8125 7.69312 12.8125 6.49687C12.8125 5.30062 13.7917 4.33125 15 4.33125C16.2083 4.33125 17.1875 5.30062 17.1875 6.49687C17.1875 7.69312 16.2083 8.6625 15 8.6625ZM1.04792 11.1349C0.738634 11.2574 0.473505 11.4688 0.286724 11.7418C0.099942 12.0149 7.40733e-05 12.3371 0 12.6668L0 25.574C0 26.1577 0.595312 26.5567 1.14271 26.3402L8.33333 23.1V11.0818C7.87292 10.2578 7.49635 9.45553 7.22656 8.68828L1.04792 11.1349ZM15 18.5455C14.2672 18.5455 13.574 18.2268 13.0984 17.671C12.0745 16.4747 10.9854 15.1125 10 13.7151V23.0995L20 26.3995V13.7156C19.0146 15.1125 17.926 16.4753 16.9016 17.6715C16.426 18.2268 15.7328 18.5455 15 18.5455ZM28.8573 8.30981L21.6667 11.55V26.4L28.9521 23.5151C29.2614 23.3927 29.5266 23.1813 29.7134 22.9082C29.9002 22.6352 30 22.3129 30 21.9832V9.07603C30 8.49234 29.4047 8.09325 28.8573 8.30981Z" />
</svg>
