<svg width="54" height="50" viewBox="0 0 54 50" fill="none" xmlns="http://www.w3.org/2000/svg">
<path d="M15.1369 28.7533L23.1293 20.7809L5.64768 3.37111C4.29208 2.0189 1.94802 2.38513 1.10077 4.13173C-0.904388 8.32923 -0.170105 13.4845 3.30362 16.9778L15.1369 28.7533ZM34.2847 23.6543C38.6057 25.6545 44.6776 24.2459 49.1681 19.7667C54.5622 14.386 55.6072 6.66714 51.4556 2.52598C47.3324 -1.587 39.5941 -0.572841 34.1717 4.80784C29.6813 9.28705 28.2692 15.3438 30.2744 19.654L4.68746 45.177C4.1594 45.7038 3.86274 46.4182 3.86274 47.1631C3.86274 47.908 4.1594 48.6224 4.68746 49.1492C5.21552 49.6759 5.93171 49.9718 6.6785 49.9718C7.42528 49.9718 8.14148 49.6759 8.66953 49.1492L26.1511 31.7676L43.6045 49.1773C43.8659 49.4382 44.1763 49.6451 44.518 49.7862C44.8596 49.9274 45.2257 50 45.5955 50C45.9653 50 46.3314 49.9274 46.673 49.7862C47.0147 49.6451 47.3251 49.4382 47.5865 49.1773C47.848 48.9165 48.0554 48.6069 48.1969 48.2661C48.3384 47.9254 48.4112 47.5601 48.4112 47.1913C48.4112 46.8224 48.3384 46.4572 48.1969 46.1164C48.0554 45.7757 47.848 45.466 47.5865 45.2052L30.1332 27.7955L34.2847 23.6543Z" fill="white"/>
</svg>
