<svg width="30" height="30" viewBox="0 0 30 30" fill="#003868" xmlns="http://www.w3.org/2000/svg">
<circle cx="15" cy="15" r="15" fill="white"/>
<path fill-rule="evenodd" clip-rule="evenodd" d="M14.659 19.9952H15.6651C15.6651 19.9952 15.9746 19.9952 16.1294 19.7627C16.2842 19.6077 16.2842 19.2978 16.2842 19.2978C16.2842 19.2978 16.2842 17.9031 16.9033 17.6707C17.5224 17.4383 18.3737 19.0654 19.225 19.6077C19.9215 20.0726 20.3858 19.9952 20.3858 19.9952H22.7075C22.7075 19.9952 23.9458 19.9177 23.3266 18.9879C23.2493 18.9104 23.0171 18.2906 21.6241 16.9734C20.1537 15.5787 20.3858 15.8111 22.0884 13.4867C23.1719 12.092 23.5588 11.1622 23.4814 10.7748C23.3266 10.3874 22.5528 10.5424 22.5528 10.5424H19.9215C19.9215 10.5424 19.6893 10.5424 19.612 10.6199C19.4572 10.6973 19.3798 10.9298 19.3798 10.9298C19.3798 10.9298 18.9928 12.0145 18.3737 12.9443C17.2129 14.9588 16.7485 15.0363 16.5164 14.8814C16.052 14.5714 16.2068 13.7191 16.2068 13.0993C16.2068 11.1622 16.5164 10.3874 15.6651 10.155C15.3555 10.0775 15.2008 10.0775 14.4269 10C13.4982 10 12.7243 10 12.26 10.2324C11.9504 10.3874 11.7182 10.6973 11.873 10.6973C12.0278 10.6973 12.4147 10.7748 12.6469 11.0847C12.8791 11.4722 12.8791 12.247 12.8791 12.247C12.8791 12.247 13.0338 14.4939 12.4921 14.8039C12.1052 14.9588 11.6408 14.5714 10.6348 12.7893C10.093 11.8596 9.7061 10.8523 9.7061 10.8523C9.7061 10.8523 9.62871 10.6973 9.47393 10.5424C9.31915 10.3874 9.08698 10.3874 9.08698 10.3874H6.61052C6.61052 10.3874 6.22357 10.3874 6.06879 10.5424C5.91401 10.6973 6.06879 11.0073 6.06879 11.0073C6.06879 11.0073 8.00353 15.5787 10.2478 17.9031C12.3373 20.1501 14.659 19.9952 14.659 19.9952Z" />
</svg>
