<svg width="43" height="43" viewBox="0 0 43 43" fill="none" xmlns="http://www.w3.org/2000/svg">
<path d="M33.452 0.0657959H18.6357V42.9999H33.452C38.6541 42.9999 43.0002 38.7197 43.0002 33.4517V9.54818C43.0002 4.34604 38.72 0.0657959 33.452 0.0657959Z" fill="#DBDBDB"/>
<path d="M41.2221 20.3476L29.1057 0H9.54825C4.34611 0 0 4.47779 0 9.74578V33.6493C0 38.8515 4.28026 42.9342 9.54825 42.9342H29.1057L41.2221 22.7841C41.6172 22.0597 41.6172 21.0061 41.2221 20.3476Z" fill="white"/>
<path d="M33.4518 0.0657959H9.54825C4.34611 0.0657959 0 4.54358 0 9.81158V33.7151C0 38.9173 4.28026 42.9999 9.54825 42.9999H33.4518C38.6539 42.9999 43 38.9173 43 33.7151V9.81158C43 4.47773 38.7198 0.0657959 33.4518 0.0657959ZM42.2757 33.6493C42.2757 38.5222 38.3247 42.2098 33.4518 42.2098H9.54825C4.67536 42.2098 0.724353 38.4563 0.724353 33.6493V9.74572C0.724353 4.87283 4.67536 0.724295 9.54825 0.724295H33.5176C38.3905 0.724295 42.2757 4.87283 42.2757 9.74572V33.6493Z" fill="#DBDBDB"/>
<path d="M19.0304 26.0108L28.7103 16.3308C28.7103 22.7841 23.8374 27.657 15.8037 38.8515L19.0304 26.0108Z" fill="#CC0000"/>
<path d="M19.0305 6.71667C24.3644 6.71667 28.7105 11.0628 28.7105 16.3966C28.7105 21.7304 24.4302 26.0766 19.0305 26.0766C13.6967 26.0766 9.35059 21.7963 9.35059 16.3966C9.35059 10.9969 13.7625 6.71667 19.0305 6.71667Z" fill="#FF0000"/>
<path d="M19.0307 12.5115C21.2037 12.5115 22.9158 14.2236 22.9158 16.3966C22.9158 18.5697 21.2037 20.2818 19.0307 20.2818C16.8576 20.2818 15.1455 18.5697 15.1455 16.3966C15.1455 14.2236 16.8576 12.5115 19.0307 12.5115Z" fill="#F6F5F3"/>
</svg>
