<svg width="64" height="64" viewBox="0 0 64 64" fill="none" xmlns="http://www.w3.org/2000/svg">
<path d="M34.8999 17.9004V10.9004H59.4999V17.9004H34.8999Z" stroke="#003668"/>
<path d="M44.2998 4C44.2998 5.933 42.7328 7.5 40.7998 7.5C38.8668 7.5 37.2998 5.933 37.2998 4C37.2998 2.067 38.8668 0.5 40.7998 0.5C42.7328 0.5 44.2998 2.067 44.2998 4Z" stroke="#003668"/>
<path d="M56.2998 4C56.2998 5.933 54.7328 7.5 52.7998 7.5C50.8668 7.5 49.2998 5.933 49.2998 4C49.2998 2.067 50.8668 0.5 52.7998 0.5C54.7328 0.5 56.2998 2.067 56.2998 4Z" stroke="#003668"/>
<path d="M5.2998 17.9004V10.9004H29.8998V17.9004H5.2998Z" stroke="#003668"/>
<path d="M14.6997 4C14.6997 5.933 13.1327 7.5 11.1997 7.5C9.26671 7.5 7.69971 5.933 7.69971 4C7.69971 2.067 9.26671 0.5 11.1997 0.5C13.1327 0.5 14.6997 2.067 14.6997 4Z" stroke="#003668"/>
<path d="M26.6997 4C26.6997 5.933 25.1327 7.5 23.1997 7.5C21.2667 7.5 19.6997 5.933 19.6997 4C19.6997 2.067 21.2667 0.5 23.1997 0.5C25.1327 0.5 26.6997 2.067 26.6997 4Z" stroke="#003668"/>
<path d="M34.8999 63.5V56.5H59.4999V63.5H34.8999Z" stroke="#003668"/>
<path d="M44.2998 49.5996C44.2998 51.5326 42.7328 53.0996 40.7998 53.0996C38.8668 53.0996 37.2998 51.5326 37.2998 49.5996C37.2998 47.6666 38.8668 46.0996 40.7998 46.0996C42.7328 46.0996 44.2998 47.6666 44.2998 49.5996Z" stroke="#003668"/>
<path d="M56.2998 49.5996C56.2998 51.5326 54.7328 53.0996 52.7998 53.0996C50.8668 53.0996 49.2998 51.5326 49.2998 49.5996C49.2998 47.6666 50.8668 46.0996 52.7998 46.0996C54.7328 46.0996 56.2998 47.6666 56.2998 49.5996Z" stroke="#003668"/>
<path d="M5.2998 63.5V56.5H29.8998V63.5H5.2998Z" stroke="#003668"/>
<path d="M14.6997 49.5996C14.6997 51.5326 13.1327 53.0996 11.1997 53.0996C9.26671 53.0996 7.69971 51.5326 7.69971 49.5996C7.69971 47.6666 9.26671 46.0996 11.1997 46.0996C13.1327 46.0996 14.6997 47.6666 14.6997 49.5996Z" stroke="#003668"/>
<path d="M26.6997 49.5996C26.6997 51.5326 25.1327 53.0996 23.1997 53.0996C21.2667 53.0996 19.6997 51.5326 19.6997 49.5996C19.6997 47.6666 21.2667 46.0996 23.1997 46.0996C25.1327 46.0996 26.6997 47.6666 26.6997 49.5996Z" stroke="#003668"/>
<path d="M34.8999 40.3008V33.3008H59.4999V40.3008H34.8999Z" stroke="#003668"/>
<path d="M44.2998 26.4004C44.2998 28.3334 42.7328 29.9004 40.7998 29.9004C38.8668 29.9004 37.2998 28.3334 37.2998 26.4004C37.2998 24.4674 38.8668 22.9004 40.7998 22.9004C42.7328 22.9004 44.2998 24.4674 44.2998 26.4004Z" stroke="#003668"/>
<path d="M56.2998 26.4004C56.2998 28.3334 54.7328 29.9004 52.7998 29.9004C50.8668 29.9004 49.2998 28.3334 49.2998 26.4004C49.2998 24.4674 50.8668 22.9004 52.7998 22.9004C54.7328 22.9004 56.2998 24.4674 56.2998 26.4004Z" stroke="#003668"/>
<path d="M5.2998 40.3008V33.3008H29.8998V40.3008H5.2998Z" stroke="#003668"/>
<path d="M14.6997 26.4004C14.6997 28.3334 13.1327 29.9004 11.1997 29.9004C9.26671 29.9004 7.69971 28.3334 7.69971 26.4004C7.69971 24.4674 9.26671 22.9004 11.1997 22.9004C13.1327 22.9004 14.6997 24.4674 14.6997 26.4004Z" stroke="#003668"/>
<path d="M26.6997 26.4004C26.6997 28.3334 25.1327 29.9004 23.1997 29.9004C21.2667 29.9004 19.6997 28.3334 19.6997 26.4004C19.6997 24.4674 21.2667 22.9004 23.1997 22.9004C25.1327 22.9004 26.6997 24.4674 26.6997 26.4004Z" stroke="#003668"/>
</svg>
