<svg width="64" height="64" viewBox="0 0 64 64" fill="none" xmlns="http://www.w3.org/2000/svg">
<path d="M23.5 4C23.5 5.933 21.933 7.5 20 7.5C18.067 7.5 16.5 5.933 16.5 4C16.5 2.067 18.067 0.5 20 0.5C21.933 0.5 23.5 2.067 23.5 4Z" stroke="#003668"/>
<path d="M35.4995 4C35.4995 5.933 33.9325 7.5 31.9995 7.5C30.0665 7.5 28.4995 5.933 28.4995 4C28.4995 2.067 30.0665 0.5 31.9995 0.5C33.9325 0.5 35.4995 2.067 35.4995 4Z" stroke="#003668"/>
<path d="M47.5 4C47.5 5.933 45.933 7.5 44 7.5C42.067 7.5 40.5 5.933 40.5 4C40.5 2.067 42.067 0.5 44 0.5C45.933 0.5 47.5 2.067 47.5 4Z" stroke="#003668"/>
<path d="M60 28.501C61.933 28.501 63.5 30.068 63.5 32.001C63.5 33.934 61.933 35.501 60 35.501C58.067 35.501 56.5 33.934 56.5 32.001C56.5 30.068 58.067 28.501 60 28.501Z" stroke="#003668"/>
<path d="M60 40.5C61.933 40.5 63.5 42.067 63.5 44C63.5 45.933 61.933 47.5 60 47.5C58.067 47.5 56.5 45.933 56.5 44C56.5 42.067 58.067 40.5 60 40.5Z" stroke="#003668"/>
<path d="M60 16.501C61.933 16.501 63.5 18.068 63.5 20.001C63.5 21.934 61.933 23.501 60 23.501C58.067 23.501 56.5 21.934 56.5 20.001C56.5 18.068 58.067 16.501 60 16.501Z" stroke="#003668"/>
<path d="M4 28.501C5.933 28.501 7.5 30.068 7.5 32.001C7.5 33.934 5.933 35.501 4 35.501C2.067 35.501 0.5 33.934 0.5 32.001C0.5 30.068 2.067 28.501 4 28.501Z" stroke="#003668"/>
<path d="M4 40.5C5.933 40.5 7.5 42.067 7.5 44C7.5 45.933 5.933 47.5 4 47.5C2.067 47.5 0.5 45.933 0.5 44C0.5 42.067 2.067 40.5 4 40.5Z" stroke="#003668"/>
<path d="M4 16.501C5.933 16.501 7.5 18.068 7.5 20.001C7.5 21.934 5.933 23.501 4 23.501C2.067 23.501 0.5 21.934 0.5 20.001C0.5 18.068 2.067 16.501 4 16.501Z" stroke="#003668"/>
<path d="M23.5 60C23.5 61.933 21.933 63.5 20 63.5C18.067 63.5 16.5 61.933 16.5 60C16.5 58.067 18.067 56.5 20 56.5C21.933 56.5 23.5 58.067 23.5 60Z" stroke="#003668"/>
<path d="M35.4995 60C35.4995 61.933 33.9325 63.5 31.9995 63.5C30.0665 63.5 28.4995 61.933 28.4995 60C28.4995 58.067 30.0665 56.5 31.9995 56.5C33.9325 56.5 35.4995 58.067 35.4995 60Z" stroke="#003668"/>
<path d="M47.5 60C47.5 61.933 45.933 63.5 44 63.5C42.067 63.5 40.5 61.933 40.5 60C40.5 58.067 42.067 56.5 44 56.5C45.933 56.5 47.5 58.067 47.5 60Z" stroke="#003668"/>
<path d="M41.6 42.1005H42.1V41.6005V22.4V21.9H41.6H21.6H21.1V22.4V41.6005V42.1005H21.6H41.6ZM50.7 51.5H12.5V12.5H50.7V51.5Z" stroke="#003668"/>
</svg>
