<svg width="64" height="64" viewBox="0 0 64 64" fill="none" xmlns="http://www.w3.org/2000/svg">
<g clip-path="url(#clip0)">
<path d="M23.9998 23.5H23.4998V24V63.5H13.2998V12.5H51.4998V63.5H41.2998V24V23.5H40.7998H23.9998Z" stroke="#003668"/>
<path d="M23.5 4C23.5 5.933 21.933 7.5 20 7.5C18.067 7.5 16.5 5.933 16.5 4C16.5 2.067 18.067 0.5 20 0.5C21.933 0.5 23.5 2.067 23.5 4Z" stroke="#003668"/>
<path d="M35.9438 4C35.9438 5.933 34.3768 7.5 32.4438 7.5C30.5108 7.5 28.9438 5.933 28.9438 4C28.9438 2.067 30.5108 0.5 32.4438 0.5C34.3768 0.5 35.9438 2.067 35.9438 4Z" stroke="#003668"/>
<path d="M48.0923 4C48.0923 5.933 46.5253 7.5 44.5923 7.5C42.6593 7.5 41.0923 5.933 41.0923 4C41.0923 2.067 42.6593 0.5 44.5923 0.5C46.5253 0.5 48.0923 2.067 48.0923 4Z" stroke="#003668"/>
<path d="M32.7998 52.5C34.7328 52.5 36.2998 54.067 36.2998 56C36.2998 57.933 34.7328 59.5 32.7998 59.5C30.8668 59.5 29.2998 57.933 29.2998 56C29.2998 54.067 30.8668 52.5 32.7998 52.5Z" stroke="#003668"/>
<path d="M32.7998 40.5C34.7328 40.5 36.2998 42.067 36.2998 44C36.2998 45.933 34.7328 47.5 32.7998 47.5C30.8668 47.5 29.2998 45.933 29.2998 44C29.2998 42.067 30.8668 40.5 32.7998 40.5Z" stroke="#003668"/>
<path d="M32.7998 28.5C34.7328 28.5 36.2998 30.067 36.2998 32C36.2998 33.933 34.7328 35.5 32.7998 35.5C30.8668 35.5 29.2998 33.933 29.2998 32C29.2998 30.067 30.8668 28.5 32.7998 28.5Z" stroke="#003668"/>
<path d="M60 40.5C61.933 40.5 63.5 42.067 63.5 44C63.5 45.933 61.933 47.5 60 47.5C58.067 47.5 56.5 45.933 56.5 44C56.5 42.067 58.067 40.5 60 40.5Z" stroke="#003668"/>
<path d="M60 28.5C61.933 28.5 63.5 30.067 63.5 32C63.5 33.933 61.933 35.5 60 35.5C58.067 35.5 56.5 33.933 56.5 32C56.5 30.067 58.067 28.5 60 28.5Z" stroke="#003668"/>
<path d="M60 53.2998C61.933 53.2998 63.5 54.8668 63.5 56.7998C63.5 58.7328 61.933 60.2998 60 60.2998C58.067 60.2998 56.5 58.7328 56.5 56.7998C56.5 54.8668 58.067 53.2998 60 53.2998Z" stroke="#003668"/>
<path d="M60 16.5C61.933 16.5 63.5 18.067 63.5 20C63.5 21.933 61.933 23.5 60 23.5C58.067 23.5 56.5 21.933 56.5 20C56.5 18.067 58.067 16.5 60 16.5Z" stroke="#003668"/>
<path d="M4.7998 40.5C6.7328 40.5 8.2998 42.067 8.2998 44C8.2998 45.933 6.7328 47.5 4.7998 47.5C2.86681 47.5 1.2998 45.933 1.2998 44C1.2998 42.067 2.86681 40.5 4.7998 40.5Z" stroke="#003668"/>
<path d="M4.7998 28.5C6.7328 28.5 8.2998 30.067 8.2998 32C8.2998 33.933 6.7328 35.5 4.7998 35.5C2.86681 35.5 1.2998 33.933 1.2998 32C1.2998 30.067 2.86681 28.5 4.7998 28.5Z" stroke="#003668"/>
<path d="M4.7998 53.2998C6.7328 53.2998 8.2998 54.8668 8.2998 56.7998C8.2998 58.7328 6.7328 60.2998 4.7998 60.2998C2.86681 60.2998 1.2998 58.7328 1.2998 56.7998C1.2998 54.8668 2.86681 53.2998 4.7998 53.2998Z" stroke="#003668"/>
<path d="M4.7998 16.5C6.7328 16.5 8.2998 18.067 8.2998 20C8.2998 21.933 6.7328 23.5 4.7998 23.5C2.86681 23.5 1.2998 21.933 1.2998 20C1.2998 18.067 2.86681 16.5 4.7998 16.5Z" stroke="#003668"/>
</g>
<defs>
<clipPath id="clip0">
<rect width="64" height="64" fill="white"/>
</clipPath>
</defs>
</svg>
