<svg width="64" height="64" viewBox="0 0 64 64" fill="none" xmlns="http://www.w3.org/2000/svg">
<path d="M59.5 36C59.5 37.933 57.933 39.5 56 39.5C54.067 39.5 52.5 37.933 52.5 36C52.5 34.067 54.067 32.5 56 32.5C57.933 32.5 59.5 34.067 59.5 36Z" stroke="#003668"/>
<path d="M11.5 36C11.5 37.933 9.933 39.5 8 39.5C6.067 39.5 4.5 37.933 4.5 36C4.5 34.067 6.067 32.5 8 32.5C9.933 32.5 11.5 34.067 11.5 36Z" stroke="#003668"/>
<path d="M43.5 36C43.5 37.933 41.933 39.5 40 39.5C38.067 39.5 36.5 37.933 36.5 36C36.5 34.067 38.067 32.5 40 32.5C41.933 32.5 43.5 34.067 43.5 36Z" stroke="#003668"/>
<path d="M27.5 36C27.5 37.933 25.933 39.5 24 39.5C22.067 39.5 20.5 37.933 20.5 36C20.5 34.067 22.067 32.5 24 32.5C25.933 32.5 27.5 34.067 27.5 36Z" stroke="#003668"/>
<path d="M59.5 60C59.5 61.933 57.933 63.5 56 63.5C54.067 63.5 52.5 61.933 52.5 60C52.5 58.067 54.067 56.5 56 56.5C57.933 56.5 59.5 58.067 59.5 60Z" stroke="#003668"/>
<path d="M11.5 60C11.5 61.933 9.933 63.5 8 63.5C6.067 63.5 4.5 61.933 4.5 60C4.5 58.067 6.067 56.5 8 56.5C9.933 56.5 11.5 58.067 11.5 60Z" stroke="#003668"/>
<path d="M43.5 60C43.5 61.933 41.933 63.5 40 63.5C38.067 63.5 36.5 61.933 36.5 60C36.5 58.067 38.067 56.5 40 56.5C41.933 56.5 43.5 58.067 43.5 60Z" stroke="#003668"/>
<path d="M27.5 60C27.5 61.933 25.933 63.5 24 63.5C22.067 63.5 20.5 61.933 20.5 60C20.5 58.067 22.067 56.5 24 56.5C25.933 56.5 27.5 58.067 27.5 60Z" stroke="#003668"/>
<path d="M59.5 48C59.5 49.933 57.933 51.5 56 51.5C54.067 51.5 52.5 49.933 52.5 48C52.5 46.067 54.067 44.5 56 44.5C57.933 44.5 59.5 46.067 59.5 48Z" stroke="#003668"/>
<path d="M11.5 48C11.5 49.933 9.933 51.5 8 51.5C6.067 51.5 4.5 49.933 4.5 48C4.5 46.067 6.067 44.5 8 44.5C9.933 44.5 11.5 46.067 11.5 48Z" stroke="#003668"/>
<path d="M43.5 48C43.5 49.933 41.933 51.5 40 51.5C38.067 51.5 36.5 49.933 36.5 48C36.5 46.067 38.067 44.5 40 44.5C41.933 44.5 43.5 46.067 43.5 48Z" stroke="#003668"/>
<path d="M27.5 48C27.5 49.933 25.933 51.5 24 51.5C22.067 51.5 20.5 49.933 20.5 48C20.5 46.067 22.067 44.5 24 44.5C25.933 44.5 27.5 46.067 27.5 48Z" stroke="#003668"/>
<path d="M50.7002 4C50.7002 5.933 49.1332 7.5 47.2002 7.5C45.2672 7.5 43.7002 5.933 43.7002 4C43.7002 2.067 45.2672 0.5 47.2002 0.5C49.1332 0.5 50.7002 2.067 50.7002 4Z" stroke="#003668"/>
<path d="M34.7002 4C34.7002 5.933 33.1332 7.5 31.2002 7.5C29.2672 7.5 27.7002 5.933 27.7002 4C27.7002 2.067 29.2672 0.5 31.2002 0.5C33.1332 0.5 34.7002 2.067 34.7002 4Z" stroke="#003668"/>
<path d="M18.7002 4C18.7002 5.933 17.1332 7.5 15.2002 7.5C13.2672 7.5 11.7002 5.933 11.7002 4C11.7002 2.067 13.2672 0.5 15.2002 0.5C17.1332 0.5 18.7002 2.067 18.7002 4Z" stroke="#003668"/>
<path d="M4.5 23.5V12.5H59.5V23.5H4.5Z" stroke="#003668"/>
</svg>
