<svg width="178" height="127" viewBox="0 0 178 127" fill="none" xmlns="http://www.w3.org/2000/svg">
<path d="M64.0962 63.8334C64.0962 63.8334 151.541 46.5541 154.611 45.9813C159.857 44.9948 173.066 42.2263 174.186 42.099C174.889 42.0354 176.649 42.0354 176.649 42.0354L175.721 43.6901C175.721 43.6901 164.686 45.8222 164.239 45.8858L63.4565 65.7427L64.0962 63.8334Z" fill="white"/>
<path d="M79.7686 63.3563L103.917 58.5831L175.081 44.5496C175.081 44.5496 166.158 53.8734 146.136 63.7382C124.035 74.5895 104.684 76.3078 105.676 76.2442C105.676 76.2442 109.034 71.63 113.512 68.2887C120.708 62.9108 131.679 59.0604 137.82 57.3102C144.121 55.4963 162.448 51.1049 162.448 51.1049C162.448 51.1049 139.579 53.8416 123.267 61.0333C105.388 68.9252 104.396 76.5624 104.396 76.5624C104.396 76.5624 94.8971 79.4582 90.3233 77.8353C85.8455 76.2442 97.6797 62.7199 97.6797 62.7199L79.7686 63.3563Z" fill="white"/>
<path d="M18.8387 84.6133C18.8387 84.6133 0 71.2481 0 53.8734C0 31.5662 17.9431 19.2193 28.8817 13.1096C58.531 -3.43782 91.8905 0.380805 91.8905 0.380805C91.8905 0.380805 54.0533 -0.478386 30.1611 37.3896C15.6722 60.3332 18.8387 84.6133 18.8387 84.6133Z" fill="#F68520"/>
<path d="M20.5657 84.6134C20.5657 84.6134 18.5507 63.6746 27.2824 46.6499C37.0695 27.5568 64.7038 0.635467 104.908 1.46284C157.266 2.51296 177.8 40.922 177.8 40.922C177.8 40.922 153.076 22.338 111.529 23.4199C78.6809 24.2791 55.3325 38.1534 43.1785 48.9729C24.1479 65.9021 20.5657 84.6134 20.5657 84.6134Z" fill="#FFCB05"/>
<path d="M21.7173 84.6132C21.7173 84.6132 30.1931 76.435 49.3836 70.6752C70.3972 64.3745 94.1614 63.9926 94.1614 63.9926C94.1614 63.9926 86.1654 73.221 88.7241 77.6124C91.2189 81.8765 101.87 79.1398 110.473 77.9306C120.165 76.5622 127.841 82.9266 133.022 84.295C138.715 85.8224 150.614 83.2448 150.614 83.2448C150.614 83.2448 143.417 87.2226 134.941 87.2226C126.146 87.2226 121.892 82.5129 113.032 81.0173C102.637 79.2671 89.044 84.995 83.2868 79.2671C78.7131 74.7166 82.967 67.8112 82.967 67.8112C82.967 67.8112 64.672 68.1613 48.1042 72.5845C35.5025 75.9576 21.7173 84.6132 21.7173 84.6132Z" fill="white"/>
<path d="M151.669 43.9449C148.406 44.4859 131.039 46.4907 131.039 46.4907C131.039 46.4907 118.597 41.9083 110.793 42.322C104.492 42.6402 95.8245 45.5997 76.474 51.614C69.0537 53.937 72.1882 51.3276 70.1732 51.5822L64.6399 63.1017L110.697 54.0325L172.171 42.0356C172.171 42.0356 166.829 41.3992 151.669 43.9449ZM96.4642 53.046C91.8904 53.5551 88.0523 49.5138 88.0523 49.5138L101.39 45.5997L106.507 51.5504C106.475 51.5185 103.565 52.2823 96.4642 53.046ZM117.638 49.3228C115.079 49.832 108.394 51.0094 108.394 51.0094L102.957 44.9632C102.957 44.9632 108.714 43.3721 110.409 43.3721C118.181 43.3721 128.736 47.0953 128.736 47.0953C128.736 47.0953 120.1 48.8455 117.638 49.3228Z" fill="white"/>
<path d="M91.1869 87.509C91.1869 87.8272 90.5472 89.3865 88.7241 89.3865C86.4852 89.3865 86.3253 87.8272 86.2933 87.509H83.8306C83.8306 87.8272 84.0545 88.75 84.4702 89.3865C84.918 90.0229 85.4937 90.4684 86.2614 90.8503C86.997 91.2322 87.8286 91.3594 88.6922 91.3594C89.5877 91.3594 90.4193 91.1367 91.1549 90.7548C91.8906 90.373 92.4983 90.0547 92.9141 89.3865C93.3299 88.7182 93.5538 87.7954 93.5538 87.4772H91.1869V87.509Z" fill="white"/>
<path d="M20.47 107.748V85.7587H23.3485V94.8598H32.592V85.7587H35.5025V107.748H32.592V97.9465H23.3485V107.748H20.47Z" fill="white"/>
<path d="M44.2021 92.0915C45.2576 92.0915 46.2491 92.3142 47.1766 92.7279C48.1042 93.1416 48.9357 93.7144 49.6394 94.4463C50.343 95.1782 50.8868 96.0056 51.3026 96.9602C51.7184 97.9149 51.9103 98.8696 51.9103 99.9197C51.9103 101.32 51.5584 102.593 50.8868 103.802C50.2151 105.011 49.2876 105.966 48.1041 106.666C46.9207 107.366 45.6414 107.748 44.2341 107.748C42.8587 107.748 41.5794 107.398 40.396 106.666C39.2125 105.934 38.285 104.979 37.6133 103.77C36.9417 102.561 36.5898 101.256 36.5898 99.8878C36.5898 98.5513 36.9417 97.2785 37.6133 96.0692C38.285 94.86 39.2125 93.9053 40.396 93.1734C41.5794 92.4415 42.7948 92.0915 44.2021 92.0915ZM44.2021 94.6372C42.8587 94.6372 41.7393 95.1464 40.8118 96.1329C39.8842 97.1194 39.4364 98.3604 39.4364 99.856C39.4364 101.352 39.8842 102.593 40.8118 103.579C41.7393 104.566 42.8587 105.107 44.2021 105.107C45.0657 105.107 45.8972 104.884 46.6329 104.407C47.3685 103.929 47.9762 103.293 48.392 102.497C48.8078 101.702 49.0317 100.811 49.0317 99.8242C49.0317 98.8696 48.8078 97.9785 48.392 97.183C47.9762 96.3874 47.3685 95.751 46.6329 95.3055C45.8972 94.86 45.0657 94.6372 44.2021 94.6372Z" fill="white"/>
<path d="M52.8699 97.2785C52.8699 96.292 53.1577 95.401 53.7015 94.6054C54.2452 93.8099 55.0128 93.1734 55.9404 92.7279C56.8679 92.2824 61.9534 90.9777 64.4162 94.7327C65.5996 96.5466 64.5121 97.9785 63.4566 99.0923C64.736 99.8879 65.8555 101.002 65.4716 103.547C64.8639 107.78 60.3542 107.748 59.2347 107.748H52.8379V97.2785H52.8699ZM56.0363 104.343H59.0108C59.8744 104.343 62.817 104.852 62.3052 102.37C62.0813 101.193 60.2262 101.065 59.6505 101.065C58.3392 101.065 56.8999 101.288 55.5246 101.129L55.7484 98.0422C56.2602 98.2649 58.659 98.2331 59.1388 98.2331C59.8744 98.2331 61.3137 97.8831 61.4097 96.6102C61.4736 95.6237 60.674 94.86 59.3307 94.7645C56.676 94.5736 56.0363 96.5147 56.0363 97.9467V104.343Z" fill="white"/>
<path d="M67.1666 92.187L69.8533 92.2825V101.956C69.8533 102.529 69.6294 105.075 72.9878 105.011C73.5955 105.011 75.9943 104.598 75.8024 101.861C75.6105 99.5697 73.5635 99.156 72.9558 99.156C71.1647 99.156 70.3011 99.8561 69.5655 100.588L68.446 97.9468C68.8298 97.7558 70.6849 96.1966 73.2116 96.2284C75.7384 96.2602 78.8409 98.0422 78.8409 101.447C78.8409 102.497 79.4805 105.202 76.4101 107.016C75.4825 107.557 74.459 107.843 73.3396 107.843C72.0602 107.843 70.2691 107.493 69.2776 106.825C68.2861 106.157 67.7104 105.17 67.2626 102.847C67.1347 102.243 67.1666 101.129 67.1666 100.174V92.187Z" fill="white"/>
<path d="M81.2077 92.187H78.521V107.589H81.2077V92.187Z" fill="white"/>
<path d="M94.769 92.155V107.589H92.1143V98.4239C91.2827 99.3786 85.2697 107.589 85.2697 107.589H82.519C82.519 107.589 82.551 103.229 82.551 101.129V92.1232H85.2057V102.338L92.0823 92.1232H94.769V92.155Z" fill="white"/>
<path d="M103.437 86.0771H115.719V88.8138H106.38V101.033C106.38 102.052 106.412 102.211 106.731 102.975C107.819 105.616 112.712 105.043 113.64 104.375C114.855 103.547 116.551 98.9968 113.512 96.8966C111.721 95.6555 107.755 95.6555 106.284 98.1376L106.124 94.1281C106.635 93.778 109.482 92.6961 111.273 92.8552C112.393 92.9507 115.335 93.4916 117.03 96.101C117.766 97.183 118.502 99.856 118.31 101.352C117.798 105.52 113.96 107.557 111.145 107.557C103.469 107.557 103.373 102.211 103.373 100.556V86.0771H103.437Z" fill="white"/>
<path d="M120.868 104.502C120.068 103.452 119.557 102.243 119.365 100.874C119.173 99.506 119.333 98.1695 119.813 96.8966C120.292 95.6237 121.092 94.5418 122.179 93.7144C123.011 93.078 123.907 92.6325 124.93 92.4097C125.954 92.1869 126.913 92.1233 127.937 92.2824C128.928 92.4415 129.888 92.7597 130.783 93.2689C131.679 93.778 132.446 94.4145 133.054 95.2418C133.31 95.5601 133.502 95.8783 133.694 96.2283L123.907 103.643C124.834 104.438 125.89 104.884 127.041 104.948C128.192 105.011 129.216 104.725 130.143 104.025C131.455 103.038 132.063 101.288 131.967 99.4423L134.685 99.3787C134.717 100.397 134.493 102.115 134.046 103.197C133.598 104.279 132.83 105.266 131.743 106.061C130.655 106.889 129.408 107.398 128.033 107.525C126.657 107.652 125.346 107.461 124.066 106.92C122.787 106.411 121.7 105.616 120.868 104.502ZM123.715 95.7192C122.819 96.4193 122.243 97.3103 122.02 98.4559C121.796 99.6014 121.956 100.715 122.467 101.797L129.952 96.0692C129.344 95.5282 128.672 95.1782 127.937 94.9555C127.201 94.7327 126.465 94.7009 125.73 94.8282C124.994 94.9873 124.322 95.2737 123.715 95.7192Z" fill="white"/>
<path d="M135.389 113.412V101.097C135.389 99.9515 135.453 99.0287 135.549 98.2968C135.645 97.5649 135.869 96.8648 136.221 96.1647C136.637 95.3055 137.212 94.5736 137.884 93.969C138.556 93.3644 139.355 92.8871 140.251 92.537C141.146 92.187 142.042 92.0597 143.001 92.0597C144.441 92.0597 145.72 92.4097 146.903 93.078C148.087 93.7463 148.982 94.6691 149.622 95.8783C150.294 97.0875 150.614 98.7423 150.614 100.238C150.614 104.088 147.895 107.621 143.129 107.684C141.178 107.716 138.779 106.57 137.852 106.22L137.724 102.815C139.003 103.738 140.283 105.17 143.481 105.138C147.191 105.107 148.119 101.352 148.183 99.9515C148.247 98.4559 147.895 94.7646 143.257 94.6373C142.33 94.6054 141.178 94.86 140.443 95.2737C139.707 95.6874 139.131 96.3238 138.716 97.1194C138.3 97.9149 138.108 98.8378 138.108 99.8879V113.38H135.389V113.412Z" fill="white"/>
<path d="M176.777 95.1783H172.139C171.371 95.2101 170.86 95.401 170.54 95.7829C170.22 96.1647 170.092 96.7375 170.092 97.5967V107.621H167.341V98.0741C167.341 96.6739 167.469 95.5283 167.757 94.6691C168.045 93.8099 168.493 93.1735 169.1 92.7916C169.708 92.4098 170.604 92.187 171.691 92.187H176.809V95.1783H176.777Z" fill="white"/>
<path d="M152.692 104.502C151.893 103.452 151.381 102.243 151.189 100.874C150.997 99.506 151.157 98.1695 151.637 96.8966C152.117 95.6237 152.916 94.5418 154.004 93.7144C154.835 93.078 155.731 92.6325 156.754 92.4097C157.778 92.1869 158.737 92.1233 159.761 92.2824C160.752 92.4415 161.712 92.7597 162.607 93.2689C163.503 93.778 164.271 94.4145 164.878 95.2418C165.134 95.5601 165.326 95.8783 165.518 96.2283L155.763 103.675C156.69 104.47 157.746 104.916 158.897 104.979C160.049 105.043 161.072 104.757 162 104.057C163.311 103.07 163.919 101.32 163.823 99.4742L166.541 99.4105C166.573 100.429 166.35 102.147 165.902 103.229C165.454 104.311 164.686 105.298 163.599 106.093C162.511 106.92 161.264 107.43 159.889 107.557C158.513 107.684 157.202 107.493 155.923 106.952C154.611 106.411 153.524 105.616 152.692 104.502ZM155.539 95.7192C154.643 96.4193 154.068 97.3103 153.844 98.4559C153.62 99.6014 153.78 100.715 154.291 101.797L161.776 96.0692C161.168 95.5282 160.496 95.1782 159.761 94.9555C159.025 94.7327 158.29 94.7009 157.554 94.8282C156.818 94.9873 156.147 95.2737 155.539 95.7192Z" fill="white"/>
<path d="M20.7258 117.644C20.7258 115.671 21.2056 114.112 22.1331 112.998C23.0607 111.885 24.2441 111.312 25.7154 111.312C26.6749 111.312 27.5385 111.566 28.3061 112.107C29.0737 112.648 29.6814 113.38 30.0652 114.303C30.481 115.258 30.6729 116.308 30.6729 117.517C30.6729 118.726 30.449 119.808 30.0332 120.763C29.6174 121.718 29.0097 122.45 28.2101 122.927C27.4425 123.404 26.5789 123.659 25.6834 123.659C24.6919 123.659 23.8283 123.372 23.0607 122.831C22.2931 122.29 21.7173 121.559 21.3015 120.604C20.9177 119.681 20.7258 118.695 20.7258 117.644ZM22.1331 117.676C22.1331 119.108 22.485 120.254 23.1566 121.081C23.8283 121.909 24.6919 122.322 25.6834 122.322C26.7069 122.322 27.5704 121.909 28.2421 121.081C28.9138 120.254 29.2336 119.076 29.2336 117.517C29.2336 116.562 29.1057 115.703 28.8178 114.971C28.53 114.24 28.1142 113.699 27.5704 113.285C27.0267 112.871 26.387 112.68 25.7154 112.68C24.7239 112.68 23.8923 113.062 23.1886 113.826C22.485 114.59 22.1331 115.894 22.1331 117.676Z" fill="white"/>
<path d="M31.6003 114.812H37.7413V116.021H35.3105V123.436H34.0311V116.021H31.6003V114.812Z" fill="white"/>
<path d="M43.9781 120.667L45.2894 120.858C45.0656 121.749 44.6817 122.418 44.138 122.927C43.5623 123.404 42.8586 123.659 41.9631 123.659C40.8436 123.659 39.9801 123.277 39.3404 122.481C38.7007 121.718 38.3809 120.604 38.3809 119.204C38.3809 117.74 38.7007 116.626 39.3724 115.831C40.012 115.035 40.8756 114.621 41.9311 114.621C42.9546 114.621 43.7542 115.003 44.3939 115.799C45.0336 116.594 45.3534 117.676 45.3534 119.108V119.49H39.7242C39.7562 120.445 40.0121 121.177 40.4278 121.654C40.8436 122.131 41.3874 122.418 41.9951 122.418C42.4748 122.418 42.8586 122.29 43.2105 122.004C43.5623 121.718 43.7862 121.304 43.9781 120.667ZM39.7562 118.313H43.9781C43.9141 117.581 43.7542 117.04 43.4983 116.69C43.0825 116.117 42.5708 115.831 41.8991 115.831C41.3234 115.831 40.8117 116.053 40.4278 116.499C40.044 116.944 39.8201 117.549 39.7562 118.313Z" fill="white"/>
<path d="M47.0487 114.812H52.9977V123.436H51.7184V116.022H48.328V120.318C48.328 121.336 48.296 121.972 48.2321 122.29C48.1681 122.609 48.0082 122.895 47.7523 123.118C47.4964 123.341 47.1126 123.468 46.6329 123.468C46.345 123.468 45.9932 123.436 45.6094 123.404V122.195H46.1851C46.441 122.195 46.6329 122.163 46.7608 122.1C46.8887 122.036 46.9527 121.94 46.9847 121.813C47.0167 121.686 47.0487 121.24 47.0487 120.477V114.812Z" fill="white"/>
<path d="M54.8848 114.812H56.1641V118.185H57.7953C58.8508 118.185 59.6504 118.408 60.2261 118.885C60.8018 119.363 61.0897 119.999 61.0897 120.827C61.0897 121.558 60.8658 122.163 60.386 122.672C59.9063 123.181 59.1387 123.436 58.1152 123.436H54.9168V114.812H54.8848ZM56.1641 122.259H57.5075C58.3071 122.259 58.8828 122.131 59.2346 121.909C59.5864 121.686 59.7464 121.336 59.7464 120.858C59.7464 120.477 59.6184 120.158 59.3626 119.872C59.1067 119.586 58.531 119.426 57.6674 119.426H56.1641V122.259Z" fill="white"/>
<path d="M77.2416 123.468V118.185H75.6424C75.2906 118.185 75.0347 118.217 74.8748 118.249C74.6509 118.313 74.459 118.408 74.2351 118.567C74.0432 118.726 73.7873 118.981 73.5315 119.363C73.2756 119.745 72.9238 120.286 72.54 121.017L71.1646 123.5H69.4375L71.2606 120.254C71.6124 119.617 71.9962 119.076 72.412 118.663C72.6039 118.472 72.8918 118.281 73.2436 118.058C72.2521 117.899 71.5165 117.517 71.0367 116.944C70.5569 116.372 70.3331 115.64 70.3331 114.812C70.3331 114.144 70.493 113.571 70.7808 113.03C71.0687 112.489 71.4525 112.107 71.9323 111.885C72.412 111.662 73.1157 111.566 74.0432 111.566H78.6489V123.5H77.2416V123.468ZM77.2416 112.871H73.9473C73.1797 112.871 72.6039 113.062 72.2521 113.412C71.9003 113.762 71.7084 114.239 71.7084 114.812C71.7084 115.194 71.8043 115.544 71.9962 115.894C72.1881 116.244 72.444 116.467 72.7958 116.594C73.1477 116.753 73.6594 116.817 74.2671 116.817H77.2416V112.871Z" fill="white"/>
<path d="M79.8643 123.468L82.6149 118.981L80.0562 114.844H81.6554L82.8068 116.881C83.0307 117.262 83.1906 117.581 83.3186 117.835C83.5424 117.485 83.7343 117.167 83.8943 116.881L85.1736 114.844H86.7089L84.0862 118.917L86.9008 123.5H85.3336L83.7983 120.827L83.3825 120.095L81.3995 123.5H79.8643V123.468Z" fill="white"/>
<path d="M87.1567 114.812H93.2977V116.021H90.8669V123.436H89.5875V116.021H87.1567V114.812Z" fill="white"/>
<path d="M100.75 114.812H102.03V118.535C102.445 118.535 102.733 118.44 102.893 118.281C103.053 118.122 103.309 117.581 103.629 116.722C103.885 116.053 104.077 115.576 104.237 115.385C104.396 115.162 104.588 115.035 104.78 114.94C104.972 114.876 105.324 114.812 105.772 114.812H106.028V116.021H105.676C105.324 116.021 105.132 116.085 105.036 116.181C104.94 116.308 104.78 116.658 104.588 117.231C104.396 117.804 104.205 118.185 104.045 118.408C103.885 118.631 103.629 118.822 103.309 119.013C103.853 119.172 104.396 119.776 104.94 120.763L106.347 123.436H104.94L103.565 120.763C103.277 120.222 103.053 119.872 102.829 119.713C102.605 119.554 102.381 119.458 102.094 119.458V123.436H100.814V114.812H100.75Z" fill="white"/>
<path d="M108.906 114.812H114.855V123.436H113.576V116.022H110.185V120.318C110.185 121.336 110.153 121.972 110.089 122.29C110.026 122.609 109.866 122.895 109.61 123.118C109.354 123.341 108.97 123.468 108.49 123.468C108.202 123.468 107.851 123.436 107.467 123.404V122.195H108.043C108.298 122.195 108.49 122.163 108.618 122.1C108.746 122.036 108.81 121.94 108.842 121.813C108.874 121.686 108.906 121.24 108.906 120.477V114.812Z" fill="white"/>
<path d="M117.222 126.777L117.094 125.409C117.382 125.504 117.606 125.536 117.83 125.536C118.118 125.536 118.341 125.472 118.501 125.377C118.661 125.282 118.821 125.122 118.917 124.932C119.013 124.772 119.141 124.422 119.301 123.85C119.333 123.754 119.365 123.659 119.429 123.5L116.55 114.844H117.926L119.493 119.84C119.685 120.476 119.877 121.145 120.037 121.845C120.196 121.177 120.356 120.508 120.548 119.872L122.148 114.844H123.427L120.548 123.627C120.228 124.581 120.005 125.218 119.845 125.6C119.621 126.077 119.365 126.427 119.077 126.65C118.789 126.873 118.437 127 118.022 127C117.798 126.968 117.51 126.904 117.222 126.777Z" fill="white"/>
<path d="M130.623 111.248L131.743 111.28C131.679 111.853 131.583 112.266 131.391 112.489C131.231 112.712 131.007 112.871 130.719 112.935C130.431 112.998 129.92 113.03 129.12 113.03C128.065 113.03 127.329 113.157 126.945 113.38C126.561 113.603 126.274 113.985 126.114 114.494C125.954 115.003 125.858 115.671 125.826 116.467C126.146 115.926 126.529 115.512 126.945 115.226C127.361 114.939 127.873 114.812 128.416 114.812C129.408 114.812 130.24 115.194 130.879 115.99C131.519 116.785 131.839 117.835 131.839 119.14C131.839 120.158 131.679 120.986 131.359 121.622C131.039 122.258 130.655 122.768 130.208 123.118C129.76 123.468 129.152 123.659 128.384 123.659C127.489 123.659 126.785 123.436 126.306 122.959C125.794 122.481 125.442 121.877 125.154 121.145C124.898 120.413 124.77 119.14 124.77 117.326C124.77 115.035 125.122 113.507 125.794 112.712C126.465 111.916 127.521 111.535 128.896 111.535C129.76 111.535 130.272 111.503 130.367 111.471C130.463 111.439 130.591 111.375 130.623 111.248ZM130.559 119.108C130.559 118.217 130.367 117.485 130.016 116.881C129.632 116.308 129.12 116.021 128.448 116.021C127.745 116.021 127.201 116.34 126.817 116.944C126.433 117.549 126.242 118.376 126.242 119.363C126.242 120.381 126.465 121.145 126.881 121.654C127.297 122.195 127.841 122.449 128.448 122.449C129.088 122.449 129.6 122.131 129.984 121.527C130.367 120.922 130.559 120.126 130.559 119.108Z" fill="white"/>
<path d="M65.2479 120.381C66.1134 120.381 66.8151 119.683 66.8151 118.822C66.8151 117.961 66.1134 117.262 65.2479 117.262C64.3823 117.262 63.6807 117.961 63.6807 118.822C63.6807 119.683 64.3823 120.381 65.2479 120.381Z" fill="white"/>
<path d="M98.5112 119.108H94.6731V120.063H98.5112V119.108Z" fill="white"/>
</svg>
